<?xml version="1.0" encoding="UTF-8" standalone="no"?>
<svg
   xmlns:dc="http://purl.org/dc/elements/1.1/"
   xmlns:cc="http://creativecommons.org/ns#"
   xmlns:rdf="http://www.w3.org/1999/02/22-rdf-syntax-ns#"
   xmlns:svg="http://www.w3.org/2000/svg"
   xmlns="http://www.w3.org/2000/svg"
   id="svg8"
   version="1.1"
   viewBox="0 0 273.13147 54"
   height="54mm"
   width="273.13147mm">
  <defs
     id="defs2">
    <rect
       id="rect864"
       height="47.258556"
       width="156.63326"
       y="96.729782"
       x="163.4787" />
    <rect
       x="161.08073"
       y="99"
       width="127.30573"
       height="34.5"
       id="rect852" />
    <rect
       x="163.4787"
       y="96.729782"
       width="156.63326"
       height="47.258556"
       id="rect864-4" />
    <rect
       x="163.4787"
       y="96.729782"
       width="156.63326"
       height="47.258556"
       id="rect877" />
    <rect
       x="163.4787"
       y="96.729782"
       width="156.63326"
       height="47.258556"
       id="rect864-0" />
    <rect
       x="163.4787"
       y="96.729782"
       width="156.63326"
       height="47.258556"
       id="rect877-9" />
    <rect
       x="163.4787"
       y="96.729782"
       width="156.63326"
       height="47.258556"
       id="rect864-5" />
    <rect
       x="163.4787"
       y="96.729782"
       width="156.63326"
       height="47.258556"
       id="rect922" />
    <rect
       x="163.4787"
       y="96.729782"
       width="156.63326"
       height="47.258556"
       id="rect864-2" />
    <rect
       x="163.4787"
       y="96.729782"
       width="156.63326"
       height="47.258556"
       id="rect922-2" />
  </defs>
  <metadata
     id="metadata5">
    <rdf:RDF>
      <cc:Work
         rdf:about="">
        <dc:format>image/svg+xml</dc:format>
        <dc:type
           rdf:resource="http://purl.org/dc/dcmitype/StillImage" />
        <dc:title></dc:title>
      </cc:Work>
    </rdf:RDF>
  </metadata>
  <g
     transform="translate(-103.92305,-89.999999)"
     id="layer1">
    <path
       id="path1039"
       d="m 114.31535,111 15.58846,9 v 6 l -15.58846,-9 z"
       style="fill:#04a7ff;fill-opacity:1;stroke:none;stroke-width:0.264583px;stroke-linecap:butt;stroke-linejoin:miter;stroke-opacity:1" />
    <path
       style="fill:#04a7ff;fill-opacity:1;stroke:none;stroke-width:0.264583px;stroke-linecap:butt;stroke-linejoin:miter;stroke-opacity:1"
       d="m 114.31535,120 15.58846,9 v 6 l -15.58846,-9 z"
       id="path1039-2" />
    <path
       style="fill:#04a7ff;fill-opacity:1;stroke:none;stroke-width:0.264583px;stroke-linecap:butt;stroke-linejoin:miter;stroke-opacity:1"
       d="m 114.31535,129 15.58846,9 v 6 l -15.58846,-9 z"
       id="path1039-24" />
    <path
       id="path1064"
       d="m 114.31535,111 5.19615,-3 10.39231,6 15.58846,-9 -15.58846,-9 -20.78461,12 -5.19615,-3 L 129.90381,89.999999 155.88457,105 129.90381,120 Z"
       style="fill:#0083c9;fill-opacity:1;stroke:none;stroke-width:0.264583px;stroke-linecap:butt;stroke-linejoin:miter;stroke-opacity:1" />
    <path
       id="path1066"
       d="m 129.90381,126 25.98076,-15 v -6 l -25.98076,15 z"
       style="fill:#006195;fill-opacity:1;stroke:none;stroke-width:0.264583px;stroke-linecap:butt;stroke-linejoin:miter;stroke-opacity:1" />
    <path
       style="fill:#006195;fill-opacity:1;stroke:none;stroke-width:0.264583px;stroke-linecap:butt;stroke-linejoin:miter;stroke-opacity:1"
       d="m 129.90381,135 25.98076,-15 v -6 l -25.98076,15 z"
       id="path1066-7" />
    <path
       id="path1083"
       d="m 114.31535,120 2.59808,-1.5 12.99038,7.5 23.38269,-13.5 2.59807,1.5 -25.98076,15 z"
       style="fill:#0083c9;fill-opacity:1;stroke:none;stroke-width:0.264583px;stroke-linecap:butt;stroke-linejoin:miter;stroke-opacity:1" />
    <path
       id="path1066-7-7"
       d="m 129.90381,144 25.98076,-15 v -6 l -25.98076,15 z"
       style="fill:#006195;fill-opacity:1;stroke:none;stroke-width:0.264583px;stroke-linecap:butt;stroke-linejoin:miter;stroke-opacity:1" />
    <path
       style="fill:#0083c9;fill-opacity:1;stroke:none;stroke-width:0.264583px;stroke-linecap:butt;stroke-linejoin:miter;stroke-opacity:1"
       d="m 114.31535,129 2.59808,-1.5 12.99038,7.5 23.38269,-13.5 2.59807,1.5 -25.98076,15 z"
       id="path1083-5" />
    <path
       id="path1130"
       d="m 103.92305,105 5.19615,3 v 24 l -5.19615,-3 z"
       style="fill:#04a7ff;fill-opacity:1;stroke:none;stroke-width:0.264583px;stroke-linecap:butt;stroke-linejoin:miter;stroke-opacity:1" />
    <path
       id="path1136"
       d="m 109.1192,132 7.79423,-4.5 -2.59808,-1.5 v -6 l 2.59808,-1.5 -2.59808,-1.5 v -6 l 5.19615,-3 10.39231,6 15.58846,-9 -15.58846,-9 -20.78461,12 z"
       style="fill:#004c75;fill-opacity:1;stroke:none;stroke-width:0.264583px;stroke-linecap:butt;stroke-linejoin:miter;stroke-opacity:1" />
    <text
       xml:space="preserve"
       id="text850"
       style="font-style:normal;font-weight:normal;font-size:10.5833px;line-height:1.25;font-family:sans-serif;letter-spacing:0px;word-spacing:0px;white-space:pre;shape-inside:url(#rect852);fill:#000000;fill-opacity:1;stroke:none;" />
    <text
       transform="matrix(4.9865318,0,0,4.9865318,-649.02928,-392.4386)"
       style="font-style:normal;font-variant:normal;font-weight:normal;font-stretch:normal;font-size:10.5833px;line-height:1.25;font-family:Baumans;-inkscape-font-specification:'Baumans, Normal';font-variant-ligatures:normal;font-variant-caps:normal;font-variant-numeric:normal;font-variant-east-asian:normal;letter-spacing:0px;word-spacing:0px;white-space:pre;shape-inside:url(#rect864);fill:#0083c9;fill-opacity:1;stroke:none;"
       id="text862"
       xml:space="preserve"><tspan
         x="163.47852"
         y="106.48779"><tspan
           style="font-style:normal;font-variant:normal;font-weight:normal;font-stretch:normal;font-size:10.5833px;font-family:Baumans;-inkscape-font-specification:'Baumans, Normal';font-variant-ligatures:normal;font-variant-caps:normal;font-variant-numeric:normal;font-variant-east-asian:normal;fill:#0083c9;fill-opacity:1">Loreshelf</tspan></tspan></text>
  </g>
</svg>
