<?xml version="1.0" encoding="UTF-8" standalone="no"?>
<svg
   xmlns:dc="http://purl.org/dc/elements/1.1/"
   xmlns:cc="http://creativecommons.org/ns#"
   xmlns:rdf="http://www.w3.org/1999/02/22-rdf-syntax-ns#"
   xmlns:svg="http://www.w3.org/2000/svg"
   xmlns="http://www.w3.org/2000/svg"
   xmlns:sodipodi="http://sodipodi.sourceforge.net/DTD/sodipodi-0.dtd"
   xmlns:inkscape="http://www.inkscape.org/namespaces/inkscape"
   id="svg8"
   version="1.1"
   viewBox="0 0 273.13147 54"
   height="54mm"
   width="273.13147mm"
   sodipodi:docname="logo.svg"
   inkscape:version="1.0.1 (3bc2e813f5, 2020-09-07)">
  <sodipodi:namedview
     pagecolor="#ffffff"
     bordercolor="#666666"
     borderopacity="1"
     objecttolerance="10"
     gridtolerance="10"
     guidetolerance="10"
     inkscape:pageopacity="0"
     inkscape:pageshadow="2"
     inkscape:window-width="2494"
     inkscape:window-height="1385"
     id="namedview33"
     showgrid="false"
     inkscape:zoom="1.2021607"
     inkscape:cx="516.15396"
     inkscape:cy="102.04724"
     inkscape:window-x="66"
     inkscape:window-y="27"
     inkscape:window-maximized="1"
     inkscape:current-layer="text862" />
  <defs
     id="defs2">
    <rect
       id="rect864"
       height="47.258556"
       width="156.63326"
       y="96.729782"
       x="163.4787" />
    <rect
       x="161.08073"
       y="99"
       width="127.30573"
       height="34.5"
       id="rect852" />
    <rect
       x="163.4787"
       y="96.729782"
       width="156.63326"
       height="47.258556"
       id="rect864-4" />
    <rect
       x="163.4787"
       y="96.729782"
       width="156.63326"
       height="47.258556"
       id="rect877" />
    <rect
       x="163.4787"
       y="96.729782"
       width="156.63326"
       height="47.258556"
       id="rect864-0" />
    <rect
       x="163.4787"
       y="96.729782"
       width="156.63326"
       height="47.258556"
       id="rect877-9" />
    <rect
       x="163.4787"
       y="96.729782"
       width="156.63326"
       height="47.258556"
       id="rect864-5" />
    <rect
       x="163.4787"
       y="96.729782"
       width="156.63326"
       height="47.258556"
       id="rect922" />
    <rect
       x="163.4787"
       y="96.729782"
       width="156.63326"
       height="47.258556"
       id="rect864-2" />
    <rect
       x="163.4787"
       y="96.729782"
       width="156.63326"
       height="47.258556"
       id="rect922-2" />
  </defs>
  <metadata
     id="metadata5">
    <rdf:RDF>
      <cc:Work
         rdf:about="">
        <dc:format>image/svg+xml</dc:format>
        <dc:type
           rdf:resource="http://purl.org/dc/dcmitype/StillImage" />
        <dc:title></dc:title>
      </cc:Work>
    </rdf:RDF>
  </metadata>
  <g
     transform="translate(-103.92305,-89.999999)"
     id="layer1">
    <path
       id="path1039"
       d="m 114.31535,111 15.58846,9 v 6 l -15.58846,-9 z"
       style="fill:#04a7ff;fill-opacity:1;stroke:none;stroke-width:0.264583px;stroke-linecap:butt;stroke-linejoin:miter;stroke-opacity:1" />
    <path
       style="fill:#04a7ff;fill-opacity:1;stroke:none;stroke-width:0.264583px;stroke-linecap:butt;stroke-linejoin:miter;stroke-opacity:1"
       d="m 114.31535,120 15.58846,9 v 6 l -15.58846,-9 z"
       id="path1039-2" />
    <path
       style="fill:#04a7ff;fill-opacity:1;stroke:none;stroke-width:0.264583px;stroke-linecap:butt;stroke-linejoin:miter;stroke-opacity:1"
       d="m 114.31535,129 15.58846,9 v 6 l -15.58846,-9 z"
       id="path1039-24" />
    <path
       id="path1064"
       d="m 114.31535,111 5.19615,-3 10.39231,6 15.58846,-9 -15.58846,-9 -20.78461,12 -5.19615,-3 L 129.90381,89.999999 155.88457,105 129.90381,120 Z"
       style="fill:#0083c9;fill-opacity:1;stroke:none;stroke-width:0.264583px;stroke-linecap:butt;stroke-linejoin:miter;stroke-opacity:1" />
    <path
       id="path1066"
       d="m 129.90381,126 25.98076,-15 v -6 l -25.98076,15 z"
       style="fill:#006195;fill-opacity:1;stroke:none;stroke-width:0.264583px;stroke-linecap:butt;stroke-linejoin:miter;stroke-opacity:1" />
    <path
       style="fill:#006195;fill-opacity:1;stroke:none;stroke-width:0.264583px;stroke-linecap:butt;stroke-linejoin:miter;stroke-opacity:1"
       d="m 129.90381,135 25.98076,-15 v -6 l -25.98076,15 z"
       id="path1066-7" />
    <path
       id="path1083"
       d="m 114.31535,120 2.59808,-1.5 12.99038,7.5 23.38269,-13.5 2.59807,1.5 -25.98076,15 z"
       style="fill:#0083c9;fill-opacity:1;stroke:none;stroke-width:0.264583px;stroke-linecap:butt;stroke-linejoin:miter;stroke-opacity:1" />
    <path
       id="path1066-7-7"
       d="m 129.90381,144 25.98076,-15 v -6 l -25.98076,15 z"
       style="fill:#006195;fill-opacity:1;stroke:none;stroke-width:0.264583px;stroke-linecap:butt;stroke-linejoin:miter;stroke-opacity:1" />
    <path
       style="fill:#0083c9;fill-opacity:1;stroke:none;stroke-width:0.264583px;stroke-linecap:butt;stroke-linejoin:miter;stroke-opacity:1"
       d="m 114.31535,129 2.59808,-1.5 12.99038,7.5 23.38269,-13.5 2.59807,1.5 -25.98076,15 z"
       id="path1083-5" />
    <path
       id="path1130"
       d="m 103.92305,105 5.19615,3 v 24 l -5.19615,-3 z"
       style="fill:#04a7ff;fill-opacity:1;stroke:none;stroke-width:0.264583px;stroke-linecap:butt;stroke-linejoin:miter;stroke-opacity:1" />
    <path
       id="path1136"
       d="m 109.1192,132 7.79423,-4.5 -2.59808,-1.5 v -6 l 2.59808,-1.5 -2.59808,-1.5 v -6 l 5.19615,-3 10.39231,6 15.58846,-9 -15.58846,-9 -20.78461,12 z"
       style="fill:#004c75;fill-opacity:1;stroke:none;stroke-width:0.264583px;stroke-linecap:butt;stroke-linejoin:miter;stroke-opacity:1" />
    <text
       xml:space="preserve"
       id="text850"
       style="font-style:normal;font-weight:normal;font-size:10.5833px;line-height:1.25;font-family:sans-serif;letter-spacing:0px;word-spacing:0px;white-space:pre;shape-inside:url(#rect852);fill:#000000;fill-opacity:1;stroke:none;" />
    <g
       aria-label="Loreshelf"
       transform="matrix(4.9865318,0,0,4.9865318,-649.02928,-392.4386)"
       id="text862"
       style="font-style:normal;font-variant:normal;font-weight:normal;font-stretch:normal;font-size:10.5833px;line-height:1.25;font-family:Baumans;-inkscape-font-specification:'Baumans, Normal';font-variant-ligatures:normal;font-variant-caps:normal;font-variant-numeric:normal;font-variant-east-asian:normal;letter-spacing:0px;word-spacing:0px;white-space:pre;shape-inside:url(#rect864);fill:#0083c9;fill-opacity:1;stroke:none">
      <path
         d="m 168.31508,105.55646 v 0.93133 h -1.54516 q -0.43391,0 -0.68791,-0.0106 -0.24342,-0.0212 -0.61383,-0.127 -0.37042,-0.11641 -0.62442,-0.33866 -0.39158,-0.35983 -0.508,-0.85725 -0.11641,-0.508 -0.11641,-1.18533 v -4.889482 h 0.99483 v 4.868322 q 0,0.61383 0.13758,0.96308 0.27517,0.64558 1.15358,0.64558 z"
         style="font-style:normal;font-variant:normal;font-weight:normal;font-stretch:normal;font-size:10.5833px;font-family:Baumans;-inkscape-font-specification:'Baumans, Normal';font-variant-ligatures:normal;font-variant-caps:normal;font-variant-numeric:normal;font-variant-east-asian:normal;fill:#0083c9;fill-opacity:1"
         id="path858" />
      <path
         d="m 169.80121,102.07455 q 0.74083,-0.77258 1.85208,-0.77258 0.53975,0 1.00541,0.21167 0.47625,0.20108 0.8255,0.56091 0.35983,0.35983 0.56091,0.84667 0.20109,0.47624 0.20109,1.02658 0,0.55033 -0.20109,1.03716 -0.1905,0.47625 -0.53974,0.83608 -0.34925,0.35983 -0.8255,0.5715 -0.47625,0.20108 -1.02658,0.20108 -0.56092,0 -1.03717,-0.20108 -0.46566,-0.21167 -0.81491,-0.5715 -0.34925,-0.35983 -0.55033,-0.83608 -0.1905,-0.48683 -0.1905,-1.03716 0,-1.12183 0.74083,-1.87325 z m 1.85208,0.11642 q -0.74083,0 -1.19592,0.48683 -0.44449,0.48683 -0.44449,1.27 0,0.78316 0.44449,1.26999 0.45509,0.48683 1.19592,0.48683 0.75141,0 1.19591,-0.48683 0.4445,-0.49741 0.4445,-1.26999 0,-0.77259 -0.4445,-1.25942 -0.4445,-0.49741 -1.19591,-0.49741 z"
         style="font-style:normal;font-variant:normal;font-weight:normal;font-stretch:normal;font-size:10.5833px;font-family:Baumans;-inkscape-font-specification:'Baumans, Normal';font-variant-ligatures:normal;font-variant-caps:normal;font-variant-numeric:normal;font-variant-east-asian:normal;fill:#0083c9;fill-opacity:1"
         id="path860" />
      <path
         d="m 175.19952,106.48779 v -2.88924 q 0,-1.21708 0.45508,-1.68275 0.22225,-0.23283 0.53975,-0.34925 0.3175,-0.11641 0.55033,-0.13758 0.24342,-0.0212 0.65617,-0.0212 h 0.93133 v 0.889 h -1.12183 q -0.21167,0 -0.32809,0.0106 -0.11641,0.0106 -0.27516,0.0741 -0.15875,0.0635 -0.27517,0.20108 -0.20108,0.254 -0.20108,1.016 v 2.88924 z"
         style="font-style:normal;font-variant:normal;font-weight:normal;font-stretch:normal;font-size:10.5833px;font-family:Baumans;-inkscape-font-specification:'Baumans, Normal';font-variant-ligatures:normal;font-variant-caps:normal;font-variant-numeric:normal;font-variant-east-asian:normal;fill:#0083c9;fill-opacity:1"
         id="path862" />
      <path
         d="m 181.50402,101.30197 q 1.79917,0.0741 1.79917,1.49225 0,1.76741 -2.31775,1.76741 h -0.43391 v -0.81492 h 0.508 q 0.70908,0 0.98424,-0.21166 0.27517,-0.22225 0.27517,-0.73025 0,-0.32808 -0.24342,-0.48683 -0.24341,-0.16934 -0.62441,-0.16934 -0.75142,0 -1.18533,0.52917 -0.42333,0.52916 -0.42333,1.27 0,0.78316 0.45508,1.26999 0.46566,0.48683 1.20649,0.48683 0.66675,0 1.09008,-0.32808 l 0.635,0.62442 q -0.73025,0.59266 -1.72508,0.59266 -1.20649,0 -1.92616,-0.70908 -0.71966,-0.70908 -0.71966,-1.83091 0,-1.24883 0.70908,-2.02141 0.70908,-0.77258 1.93674,-0.73025 z"
         style="font-style:normal;font-variant:normal;font-weight:normal;font-stretch:normal;font-size:10.5833px;font-family:Baumans;-inkscape-font-specification:'Baumans, Normal';font-variant-ligatures:normal;font-variant-caps:normal;font-variant-numeric:normal;font-variant-east-asian:normal;fill:#0083c9;fill-opacity:1"
         id="path864" />
      <path
         d="m 187.89485,101.4078 v 0.889 h -1.87324 q -0.30692,0 -0.52917,0.11642 -0.22225,0.11641 -0.22225,0.32808 0,0.127 0.0529,0.23283 0.0529,0.0952 0.11641,0.15875 0.0741,0.0635 0.21167,0.13758 0.14817,0.0635 0.22225,0.0953 0.0847,0.0212 0.67733,0.21167 0.59267,0.1905 0.87841,0.3175 0.28575,0.127 0.43392,0.34925 0.15875,0.21166 0.20108,0.42333 0.0423,0.20108 0.0423,0.40217 0,1.41816 -1.94733,1.41816 h -1.83091 v -0.889 h 1.83091 q 0.99483,0 0.99483,-0.52916 0,-0.254 -0.29633,-0.42334 -0.28575,-0.16933 -0.70908,-0.28575 -0.41275,-0.11641 -0.83609,-0.26458 -0.41274,-0.15875 -0.70908,-0.49741 -0.28575,-0.34925 -0.28575,-0.85725 0,-0.64558 0.49742,-0.98425 0.49741,-0.34925 1.2065,-0.34925 z"
         style="font-style:normal;font-variant:normal;font-weight:normal;font-stretch:normal;font-size:10.5833px;font-family:Baumans;-inkscape-font-specification:'Baumans, Normal';font-variant-ligatures:normal;font-variant-caps:normal;font-variant-numeric:normal;font-variant-east-asian:normal;fill:#0083c9;fill-opacity:1"
         id="path866" />
      <path
         d="m 190.0975,99.079478 v 2.328322 h 0.89958 q 1.17474,0 1.68274,0.34925 0.45509,0.30692 0.5715,0.74083 0.127,0.42334 0.127,1.12183 v 2.86808 h -0.93133 v -2.85749 q 0,-0.1905 -0.0106,-0.3175 -0.0106,-0.13759 -0.0741,-0.33867 -0.0635,-0.21166 -0.17991,-0.33866 -0.11642,-0.13759 -0.33867,-0.23284 -0.22225,-0.10583 -0.53975,-0.10583 h -1.20649 v 4.19099 h -0.93133 v -7.408312 z"
         style="font-style:normal;font-variant:normal;font-weight:normal;font-stretch:normal;font-size:10.5833px;font-family:Baumans;-inkscape-font-specification:'Baumans, Normal';font-variant-ligatures:normal;font-variant-caps:normal;font-variant-numeric:normal;font-variant-east-asian:normal;fill:#0083c9;fill-opacity:1"
         id="path868" />
      <path
         d="m 197.13093,101.30197 q 1.79916,0.0741 1.79916,1.49225 0,1.76741 -2.31774,1.76741 h -0.43392 v -0.81492 h 0.508 q 0.70908,0 0.98425,-0.21166 0.27516,-0.22225 0.27516,-0.73025 0,-0.32808 -0.24341,-0.48683 -0.24342,-0.16934 -0.62442,-0.16934 -0.75141,0 -1.18533,0.52917 -0.42333,0.52916 -0.42333,1.27 0,0.78316 0.45508,1.26999 0.46567,0.48683 1.2065,0.48683 0.66675,0 1.09008,-0.32808 l 0.635,0.62442 q -0.73025,0.59266 -1.72508,0.59266 -1.2065,0 -1.92616,-0.70908 -0.71967,-0.70908 -0.71967,-1.83091 0,-1.24883 0.70908,-2.02141 0.70908,-0.77258 1.93675,-0.73025 z"
         style="font-style:normal;font-variant:normal;font-weight:normal;font-stretch:normal;font-size:10.5833px;font-family:Baumans;-inkscape-font-specification:'Baumans, Normal';font-variant-ligatures:normal;font-variant-caps:normal;font-variant-numeric:normal;font-variant-east-asian:normal;fill:#0083c9;fill-opacity:1"
         id="path870" />
      <path
         d="m 199.99751,104.47696 v -5.397482 h 0.9525 v 5.397482 q 0,0.381 0.0847,0.62442 0.0952,0.23283 0.28574,0.33866 0.1905,0.0953 0.37042,0.127 0.17992,0.0317 0.47625,0.0317 v 0.889 q -1.18533,0 -1.68275,-0.45508 -0.48683,-0.45509 -0.48683,-1.55575 z"
         style="font-style:normal;font-variant:normal;font-weight:normal;font-stretch:normal;font-size:10.5833px;font-family:Baumans;-inkscape-font-specification:'Baumans, Normal';font-variant-ligatures:normal;font-variant-caps:normal;font-variant-numeric:normal;font-variant-east-asian:normal;fill:#0083c9;fill-opacity:1"
         id="path872" />
      <path
         d="m 205.3477,102.2968 h -1.21708 v 4.19099 h -0.95249 v -4.19099 h -0.71967 l 0.42333,-0.889 h 0.29634 q 0,-1.07949 0.73024,-1.703908 0.73025,-0.634998 1.86266,-0.634998 v 0.888998 q -1.64041,0 -1.64041,1.449908 h 1.21708 z"
         style="font-style:normal;font-variant:normal;font-weight:normal;font-stretch:normal;font-size:10.5833px;font-family:Baumans;-inkscape-font-specification:'Baumans, Normal';font-variant-ligatures:normal;font-variant-caps:normal;font-variant-numeric:normal;font-variant-east-asian:normal;fill:#0083c9;fill-opacity:1"
         id="path874" />
    </g>
  </g>
</svg>
